<?xml version="1.0" standalone="no"?>
<!DOCTYPE svg PUBLIC "-//W3C//DTD SVG 20010904//EN"
 "http://www.w3.org/TR/2001/REC-SVG-20010904/DTD/svg10.dtd">
<svg version="1.0" xmlns="http://www.w3.org/2000/svg"
 width="1024.000000pt" height="1024.000000pt" viewBox="0 0 1024.000000 1024.000000"
 preserveAspectRatio="xMidYMid meet">
<metadata>
Created by potrace 1.14, written by Peter Selinger 2001-2017
</metadata>
<g transform="translate(0.000000,1024.000000) scale(0.100000,-0.100000)"
fill="#000000" stroke="none">
<path d="M4880 7723 c-490 -61 -901 -223 -1260 -494 -481 -364 -778 -805 -926
-1378 -68 -264 -78 -352 -79 -676 0 -316 8 -383 76 -657 131 -528 481 -1061
903 -1377 343 -257 656 -400 1054 -480 208 -42 355 -55 562 -48 565 19 1081
207 1517 555 110 88 319 294 398 392 82 102 186 259 218 330 16 36 32 67 36
70 11 8 109 213 136 286 59 157 68 185 101 328 52 223 64 321 71 541 8 295
-15 489 -92 768 -159 580 -493 1049 -996 1399 -304 211 -643 349 -1036 419
-97 18 -165 22 -383 24 -146 2 -281 1 -300 -2z m311 -263 c22 -13 49 -61 49
-90 0 -11 -11 -32 -25 -45 -31 -32 -96 -34 -125 -5 -13 13 -20 33 -20 60 0 69
63 111 121 80z m80 -347 c66 -29 124 -86 156 -150 37 -77 38 -184 1 -263 -32
-72 -97 -135 -159 -157 l-49 -18 0 -131 0 -132 73 -12 c219 -37 400 -132 560
-294 234 -238 322 -589 230 -916 -25 -88 -84 -212 -99 -206 -9 4 -13 -2 -11
-17 1 -14 -3 -21 -11 -19 -7 1 -12 -3 -11 -10 3 -23 -1 -38 -10 -38 -4 0 -6
12 -3 28 2 15 1 24 -3 20 -4 -4 -18 -3 -32 3 -13 5 -22 5 -19 0 3 -5 -1 -14
-9 -21 -13 -11 -15 -10 -9 6 5 18 5 18 -6 0 -10 -15 -14 -16 -21 -5 -6 10 -9
10 -9 2 0 -7 8 -17 18 -22 23 -14 6 -14 -19 -1 -24 13 -25 37 -1 43 9 3 5 4
-11 4 -17 -1 -26 -6 -23 -13 3 -8 -4 -11 -22 -9 -15 1 -36 -5 -47 -13 -11 -9
-7 -2 9 16 17 17 37 32 45 32 11 0 12 3 4 8 -8 5 -1 24 21 62 28 46 76 159 76
175 0 3 -79 5 -175 5 l-175 0 -61 -60 c-62 -61 -130 -103 -204 -125 -39 -12
-40 -14 -47 -66 -3 -30 -7 -97 -7 -149 -1 -52 -5 -90 -9 -84 -8 12 -55 26 -47
14 3 -4 -1 -10 -9 -13 -7 -3 -13 0 -12 6 2 23 -19 20 -31 -4 -10 -20 -13 1
-15 130 l-3 154 -54 14 c-81 20 -147 61 -206 125 l-52 58 -176 0 c-139 0 -177
-3 -177 -13 0 -27 79 -174 124 -231 25 -33 46 -66 46 -73 0 -8 4 -12 8 -9 5 3
22 -9 38 -27 16 -18 19 -24 7 -13 -13 11 -23 14 -23 8 0 -7 -9 -3 -20 8 -11
11 -20 25 -20 30 0 7 -6 7 -20 0 -15 -8 -20 -8 -20 1 0 8 -4 8 -15 -1 -15 -13
-29 -8 -31 11 -3 22 -5 23 -14 9 -5 -8 -10 -25 -10 -38 0 -13 -4 -21 -9 -18
-5 3 -7 14 -5 24 5 21 -31 66 -46 57 -5 -3 -10 -1 -10 6 0 8 -4 8 -13 1 -8 -7
-18 -6 -31 3 -10 8 -24 11 -31 9 -7 -3 -16 -1 -20 5 -3 7 0 8 9 5 10 -4 16 -1
16 10 0 9 -6 13 -14 10 -38 -15 -115 209 -131 381 -8 76 8 233 31 323 24 92
90 230 152 315 150 209 363 336 646 386 33 6 63 17 68 24 4 6 8 67 8 133 l0
121 -47 18 c-70 27 -148 105 -174 174 -30 78 -30 192 0 252 57 117 152 172
286 166 42 -2 88 -12 116 -24z m-715 -255 c47 -23 58 -95 19 -133 -54 -55
-155 -18 -155 57 0 78 62 113 136 76z m1273 11 c59 -21 80 -101 36 -144 -53
-54 -155 -18 -155 55 0 52 18 73 86 100 1 0 15 -5 33 -11z m44 -387 c25 -22
22 -80 -5 -109 -27 -29 -80 -31 -108 -3 -22 22 -26 70 -9 101 21 39 83 45 122
11z m-1323 -9 c28 -36 24 -82 -10 -105 -57 -40 -120 -9 -120 59 0 49 23 73 71
73 29 0 42 -6 59 -27z m-256 -144 c48 -38 30 -127 -27 -130 -40 -2 -52 2 -74
27 -30 33 -29 69 2 99 30 30 64 32 99 4z m1811 -4 c50 -50 17 -125 -56 -125
-47 0 -84 39 -74 80 17 67 85 91 130 45z m-2006 -180 c25 -12 51 -57 51 -86 0
-23 -42 -49 -80 -49 -73 0 -108 74 -58 127 25 27 48 29 87 8z m2194 -17 c23
-27 22 -69 -3 -96 -43 -46 -130 -20 -130 39 0 76 85 113 133 57z m-2528 -130
c15 -14 28 -38 32 -60 5 -32 1 -41 -25 -68 -64 -63 -162 -24 -162 65 0 16 12
38 29 56 37 37 88 39 126 7z m2908 -9 c27 -33 31 -67 14 -104 -14 -29 -23 -35
-61 -40 -58 -9 -83 0 -102 36 -20 40 -9 93 25 120 33 27 97 21 124 -12z
m-3725 -218 c176 -51 288 -85 293 -90 11 -10 -18 -153 -32 -162 -8 -5 -9 -9
-3 -9 10 0 10 -22 -2 -96 -4 -29 -8 -32 -50 -37 -63 -7 -133 -52 -158 -103
l-21 -42 -71 -3 c-109 -6 -104 -10 -104 87 l0 84 33 0 c17 1 73 1 122 2 103 0
155 7 155 19 0 4 -15 5 -33 2 -23 -3 -37 0 -46 11 -11 14 -11 16 3 16 10 0 14
-4 11 -10 -3 -6 4 -10 17 -10 17 0 19 3 9 9 -10 6 -10 13 -2 29 6 11 8 29 5
39 -6 16 -5 15 9 -2 9 -11 17 -15 17 -9 0 26 -41 42 -153 59 l-119 18 5 26 c3
14 11 63 18 109 7 45 16 82 21 82 4 0 39 -9 76 -19z m4506 -73 c9 -51 19 -100
22 -109 4 -13 -8 -17 -63 -23 -112 -11 -229 -29 -215 -33 19 -7 14 -22 -6 -16
-13 3 -18 -2 -19 -19 0 -13 1 -17 4 -10 3 6 13 12 24 12 10 0 19 5 19 12 0 6
3 9 6 6 3 -4 0 -16 -6 -28 -10 -18 -14 -20 -22 -9 -7 10 -9 8 -5 -8 3 -12 -2
-31 -10 -42 -17 -25 -18 -23 29 -26 25 -1 35 2 31 9 -4 6 1 5 9 -2 9 -8 25
-13 35 -12 10 1 62 2 116 1 l97 -1 0 -88 0 -89 -84 -2 c-78 -1 -85 1 -91 20
-20 63 -125 138 -193 139 -18 0 -34 6 -36 13 -8 31 -48 289 -44 292 1 2 39 13
83 24 44 12 125 34 180 50 55 16 105 30 111 30 6 1 18 -41 28 -91z m-208 -250
c4 -7 3 -8 -5 -4 -6 4 -19 2 -27 -5 -12 -10 -13 -9 -8 5 7 19 30 21 40 4z m49
-27 c-6 -5 -25 10 -25 20 0 5 6 4 14 -3 8 -7 12 -15 11 -17z m-3311 -33 c-4
-29 -8 -55 -10 -57 -7 -8 -559 1 -575 10 -27 14 -33 47 -15 74 l16 25 296 0
295 0 -7 -52z m2932 26 c13 -19 15 -32 8 -52 l-9 -27 -291 -3 -291 -2 -7 31
c-3 17 -6 42 -6 55 l0 24 290 0 290 0 16 -26z m-2942 -245 c4 -28 5 -54 2 -56
-3 -3 -189 -8 -414 -10 -299 -4 -415 -2 -430 6 -16 9 -22 21 -22 46 0 66 -4
65 451 65 l406 0 7 -51z m3199 32 c22 -17 22 -59 0 -83 -19 -21 -120 -23 -580
-11 l-263 6 0 54 0 54 413 -3 c333 -2 417 -6 430 -17z m-3212 -222 c3 -8 14
-31 23 -51 l16 -38 -303 0 c-222 0 -306 3 -315 12 -19 19 -14 56 9 79 21 21
27 21 292 17 221 -4 272 -7 278 -19z m2940 11 c23 -13 26 -71 5 -89 -9 -8 -99
-11 -308 -9 l-295 3 20 53 20 52 269 0 c167 0 277 -4 289 -10z m-2550 -207
c13 -17 13 -17 -6 -3 -11 8 -22 16 -24 17 -2 2 0 3 6 3 6 0 17 -8 24 -17z m75
-25 c-8 -4 -22 -5 -32 -1 -16 6 -16 7 1 19 14 11 22 11 32 2 12 -10 12 -13 -1
-20z m1494 23 c0 -6 -4 -13 -10 -16 -5 -3 -10 1 -10 9 0 9 5 16 10 16 6 0 10
-4 10 -9z m-33 -33 c-3 -8 -6 -5 -6 6 -1 11 2 17 5 13 3 -3 4 -12 1 -19z
m-2632 -90 c7 -30 48 -154 89 -266 9 -23 41 -92 71 -152 30 -60 55 -114 55
-118 0 -5 -41 -45 -91 -88 -51 -43 -102 -90 -115 -104 -13 -14 -24 -21 -24
-17 0 4 9 17 20 29 25 27 25 36 3 34 -11 0 -17 6 -17 17 1 9 -2 17 -8 17 -5 0
-8 7 -6 16 2 10 -5 18 -14 19 -10 2 -18 -2 -18 -8 0 -5 -3 -7 -6 -4 -4 4 -2
12 4 20 8 10 5 13 -16 15 -31 2 -78 42 -50 42 36 0 127 51 161 90 34 40 67
133 53 148 -11 10 -25 -19 -19 -37 3 -9 -2 -6 -11 7 -10 12 -21 20 -26 17 -11
-7 1 39 13 46 5 4 -4 6 -21 6 -22 -1 -28 -6 -24 -17 4 -12 2 -13 -9 -2 -19 17
-50 15 -103 -8 -25 -10 -46 -17 -46 -13 0 3 14 30 31 59 32 56 31 74 -3 74
-19 0 -20 -1 -4 -25 9 -14 13 -25 8 -25 -13 0 -32 23 -32 40 0 20 -37 44 -46
29 -3 -6 -3 -13 0 -16 3 -4 6 -1 6 6 0 9 5 8 16 -3 10 -11 12 -21 6 -32 -6
-11 -11 -13 -16 -5 -4 6 -2 11 5 11 7 0 9 3 5 8 -8 7 -13 9 -43 11 -14 1 -14
3 3 22 19 22 19 22 -3 10 -12 -6 -29 -8 -39 -4 -13 5 -15 3 -9 -8 8 -12 6 -12
-8 0 -21 17 -19 20 22 25 18 2 38 9 44 16 9 10 9 11 -1 6 -7 -4 -26 -9 -42
-11 -22 -3 -30 0 -30 11 0 8 -5 12 -10 9 -6 -4 -8 -11 -5 -16 9 -13 -29 -11
-43 3 -17 17 -24 4 -13 -26 6 -14 7 -26 2 -26 -10 0 -35 100 -27 107 6 6 336
91 358 92 11 1 19 -10 23 -31z m3993 -15 l184 -47 -7 -25 c-3 -14 -6 -31 -7
-37 -1 -6 -15 -11 -32 -12 -19 0 -25 2 -17 7 10 6 9 10 -3 14 -9 4 -16 2 -16
-3 0 -6 -7 -10 -15 -10 -8 0 -15 -5 -15 -11 0 -5 -5 -7 -11 -4 -18 12 -56 -4
-62 -27 -5 -17 -9 -19 -21 -9 -11 9 -20 10 -35 1 -26 -14 -26 -15 1 -17 11 -1
25 -8 29 -15 10 -16 4 -22 -13 -12 -19 12 -38 14 -38 3 0 -6 -5 -7 -11 -3 -12
7 -2 -13 28 -55 l18 -24 -45 7 c-79 14 -103 13 -121 -2 -9 -8 -15 -21 -12 -28
3 -8 0 -15 -6 -15 -21 -3 -26 -4 -40 -13 -10 -6 -12 -5 -7 2 5 8 2 10 -9 6
-19 -8 -13 -31 21 -90 32 -56 157 -134 215 -134 11 0 19 -5 19 -11 0 -5 5 -7
12 -3 6 4 8 3 5 -4 -4 -5 -17 -8 -29 -4 -14 3 -19 1 -14 -6 3 -6 1 -14 -5 -18
-6 -3 -15 -1 -19 6 -6 9 -10 7 -15 -9 -7 -22 -20 -27 -29 -12 -4 5 0 12 6 14
7 3 -1 4 -19 2 -39 -4 -55 -13 -47 -26 3 -5 2 -9 -3 -8 -30 5 -35 -2 -30 -41
5 -37 4 -40 -11 -28 -41 32 -202 171 -202 175 0 2 31 66 69 143 64 129 151
366 151 410 0 11 6 20 13 20 6 0 94 -21 195 -47z m32 -158 c0 -8 -2 -15 -4
-15 -2 0 -6 7 -10 15 -3 8 -1 15 4 15 6 0 10 -7 10 -15z m-4135 -25 c3 -5 1
-10 -4 -10 -6 0 -11 5 -11 10 0 6 2 10 4 10 3 0 8 -4 11 -10z m622 -25 c64
-74 -26 -177 -115 -131 -45 23 -55 71 -27 126 18 35 30 40 80 35 27 -2 47 -12
62 -30z m2904 6 c20 -20 29 -39 29 -61 0 -45 -47 -90 -95 -90 -51 0 -85 36
-85 90 0 84 91 121 151 61z m529 -23 c0 -4 -4 -8 -9 -8 -6 0 -12 4 -15 8 -3 5
1 9 9 9 8 0 15 -4 15 -9z m-907 -25 c22 -20 22 -80 0 -105 -20 -23 -80 -24
-105 -1 -34 30 -20 111 22 126 21 8 62 -2 83 -20z m-2181 0 c24 -22 24 -77 -2
-103 -25 -25 -82 -27 -101 -4 -7 9 -14 33 -14 54 0 21 7 45 14 54 18 21 79 21
103 -1z m188 -203 c29 -29 25 -66 -9 -101 -32 -31 -50 -35 -84 -18 -30 16 -37
28 -37 67 0 43 30 72 75 72 22 0 43 -8 55 -20z m1814 1 c26 -29 24 -91 -4
-113 -29 -24 -75 -23 -100 2 -25 25 -27 86 -3 112 22 25 84 24 107 -1z m-1144
-471 c0 -414 -1 -430 -19 -440 -29 -15 -49 -12 -71 10 -19 19 -20 33 -20 440
l0 420 55 0 55 0 0 -430z m468 9 l-3 -422 -27 -20 c-25 -19 -28 -19 -52 -3
l-26 16 0 425 0 425 55 0 55 0 -2 -421z m-228 -48 c0 -499 2 -483 -56 -483
-60 0 -59 -11 -62 487 l-3 455 60 0 61 0 0 -459z m-667 321 c24 -21 22 -77 -3
-102 -45 -45 -120 -18 -120 42 0 76 67 109 123 60z m1297 18 c17 0 50 -44 50
-66 0 -12 -9 -33 -21 -48 -16 -20 -29 -26 -59 -26 -46 0 -70 26 -70 76 0 41
44 79 78 68 8 -2 18 -4 22 -4z m1264 -135 c11 -8 15 -15 10 -15 -6 0 -19 7
-30 15 -10 8 -14 14 -9 14 6 0 19 -6 29 -14z m-1246 -282 c19 -27 14 -38 -9
-17 -16 14 -34 18 -70 17 -32 -1 -47 1 -43 8 19 31 96 26 122 -8z m-1291 5
c13 -12 23 -28 23 -36 0 -9 -6 -7 -18 8 -22 27 -78 34 -110 13 -34 -21 -38 -9
-6 16 35 27 81 27 111 -1z m-349 -197 c32 -22 224 -111 241 -111 6 0 11 -4 11
-10 0 -5 -7 -10 -15 -10 -24 0 -154 -48 -169 -62 -33 -32 -66 -57 -66 -50 0 4
6 25 14 47 25 74 27 93 11 99 -8 3 -22 3 -30 0 -12 -5 -12 -10 -3 -27 l11 -22
-22 20 -23 20 21 9 c23 10 29 36 8 36 -7 0 -18 -5 -24 -11 -8 -8 -13 -8 -17 0
-4 6 0 11 8 11 18 0 21 21 6 36 -10 10 -4 44 7 44 3 0 17 -8 31 -19z m1924
-31 c16 -28 23 -50 17 -50 -6 0 -16 14 -22 30 -8 22 -16 28 -27 24 -8 -4 -27
-9 -42 -12 -31 -5 -36 -17 -13 -26 8 -3 14 -13 14 -23 -1 -16 -2 -16 -6 -1 -2
9 -11 19 -20 22 -19 7 -32 -2 -18 -12 6 -4 11 -22 13 -41 1 -19 11 -54 22 -79
11 -24 20 -47 20 -49 0 -2 -19 12 -43 31 -50 41 -113 70 -129 60 -6 -4 -8 -3
-5 3 8 12 -24 23 -65 23 -42 0 -34 14 20 33 26 10 92 40 147 67 55 26 102 49
105 49 3 0 17 -22 32 -49z m-32 -38 c-6 -2 -7 -9 -4 -14 4 -6 2 -8 -4 -5 -5 4
-8 16 -5 28 4 16 8 17 14 7 5 -7 4 -14 -1 -16z m-252 -232 c33 -99 56 -182 52
-185 -17 -10 -271 -72 -263 -64 5 5 20 11 33 14 33 6 38 15 12 22 -12 3 -22 9
-22 14 0 5 -4 9 -10 9 -5 0 -10 -7 -10 -16 0 -8 -4 -13 -9 -10 -5 4 -11 0 -14
-6 -6 -18 -16 105 -19 236 l-3 110 90 27 c50 14 93 27 97 28 3 0 33 -80 66
-179z m-1282 151 c32 -11 71 -22 87 -25 32 -8 33 -15 16 -242 -11 -139 -13
-151 -30 -147 -10 3 -16 9 -13 14 3 5 -1 6 -9 3 -15 -6 -53 3 -170 38 -77 23
-75 19 -42 128 8 25 28 91 45 148 18 59 36 102 43 102 7 0 40 -9 73 -19z
m-196 -61 c0 -5 -4 -10 -10 -10 -5 0 -10 5 -10 10 0 6 5 10 10 10 6 0 10 -4
10 -10z m829 -176 c28 -36 27 -79 -4 -109 -63 -64 -163 12 -121 93 18 34 28
40 73 41 23 1 37 -6 52 -25z"/>
<path d="M5069 6967 c-52 -35 -79 -82 -79 -137 0 -55 27 -102 79 -137 70 -47
165 -23 218 56 47 70 23 165 -56 218 -23 16 -49 23 -81 23 -32 0 -58 -7 -81
-23z"/>
<path d="M5018 6040 c-171 -31 -294 -94 -408 -209 -84 -85 -120 -138 -159
-238 l-21 -53 171 0 171 0 66 69 c74 75 121 103 215 127 159 41 341 -24 434
-156 l28 -40 173 0 c194 0 189 -3 152 77 -85 189 -269 343 -480 403 -84 24
-264 35 -342 20z"/>
<path d="M5055 5541 c-122 -55 -178 -178 -140 -308 22 -75 97 -152 168 -172
249 -70 423 242 239 427 -70 70 -182 92 -267 53z m146 -157 c42 -21 64 -75 49
-119 -14 -44 -49 -65 -104 -65 -37 0 -48 5 -70 31 -28 33 -35 92 -13 119 38
49 87 61 138 34z"/>
<path d="M4370 5300 l0 -80 180 0 180 0 0 80 0 80 -180 0 -180 0 0 -80z"/>
<path d="M5572 5303 l3 -78 178 -3 177 -2 0 80 0 80 -180 0 -181 0 3 -77z"/>
<path d="M4365 4830 c3 -5 8 -10 11 -10 2 0 4 5 4 10 0 6 -5 10 -11 10 -5 0
-7 -4 -4 -10z"/>
<path d="M5805 4830 c-8 -13 5 -13 25 0 13 8 13 10 -2 10 -9 0 -20 -4 -23 -10z"/>
<path d="M5860 4830 c0 -5 5 -10 10 -10 6 0 10 5 10 10 0 6 -4 10 -10 10 -5 0
-10 -4 -10 -10z"/>
<path d="M4515 4795 c-3 -8 -8 -23 -11 -32 -4 -14 -3 -15 7 -6 7 7 13 22 14
33 2 24 -4 26 -10 5z"/>
<path d="M3125 5440 c3 -5 8 -10 11 -10 2 0 4 5 4 10 0 6 -5 10 -11 10 -5 0
-7 -4 -4 -10z"/>
<path d="M2810 5270 c0 -11 4 -20 9 -20 5 0 7 9 4 20 -3 11 -7 20 -9 20 -2 0
-4 -9 -4 -20z"/>
<path d="M2927 4553 c3 -7 6 -13 8 -13 2 0 5 6 8 13 3 8 -1 14 -8 14 -7 0 -11
-6 -8 -14z"/>
<path d="M3250 4026 c0 -2 7 -7 16 -10 8 -3 12 -2 9 4 -6 10 -25 14 -25 6z"/>
<path d="M7390 4561 c0 -6 4 -13 10 -16 6 -3 7 1 4 9 -7 18 -14 21 -14 7z"/>
<path d="M6990 4386 c0 -2 7 -7 16 -10 8 -3 12 -2 9 4 -6 10 -25 14 -25 6z"/>
<path d="M7000 3970 c0 -5 5 -10 10 -10 6 0 10 5 10 10 0 6 -4 10 -10 10 -5 0
-10 -4 -10 -10z"/>
<path d="M4190 3402 c0 -12 19 -26 26 -19 2 2 -2 10 -11 17 -9 8 -15 8 -15 2z"/>
<path d="M4231 3363 c-1 -17 5 -23 19 -23 11 0 20 5 20 10 0 6 -6 10 -14 10
-8 0 -17 6 -19 13 -3 6 -6 2 -6 -10z"/>
<path d="M6100 3410 c0 -5 5 -10 11 -10 5 0 7 5 4 10 -3 6 -8 10 -11 10 -2 0
-4 -4 -4 -10z"/>
<path d="M5835 2940 c-3 -5 -1 -10 4 -10 6 0 11 5 11 10 0 6 -2 10 -4 10 -3 0
-8 -4 -11 -10z"/>
</g>
</svg>
